<?xml version="1.0" encoding="UTF-8"?>
<svg id="Layer_1" xmlns="http://www.w3.org/2000/svg" xmlns:xlink="http://www.w3.org/1999/xlink" version="1.1" viewBox="0 0 48 48">
  <!-- Generator: Adobe Illustrator 29.7.1, SVG Export Plug-In . SVG Version: 2.1.1 Build 8)  -->
  <defs>
    <style>
      .st0 {
        fill: url(#radial-gradient);
        opacity: .4;
      }

      .st0, .st1 {
        isolation: isolate;
      }

      .st2 {
        fill: url(#linear-gradient1);
        stroke: url(#linear-gradient2);
      }

      .st2, .st3 {
        stroke-width: .87px;
      }

      .st3 {
        fill: url(#linear-gradient3);
        stroke: url(#linear-gradient4);
      }

      .st1 {
        fill: #030303;
        opacity: .1;
      }

      .st4 {
        fill: #29aa1b;
        stroke: #000;
      }

      .st4, .st5 {
        stroke-linecap: round;
      }

      .st4, .st5, .st6 {
        stroke-linejoin: round;
      }

      .st5 {
        fill: url(#linear-gradient);
        stroke: #262626;
        stroke-width: 1.2px;
      }

      .st6 {
        fill: #fff;
        stroke: #fff;
        stroke-width: 1.52px;
      }
    </style>
    <radialGradient id="radial-gradient" cx="-1156.17" cy="1306.07" fx="-1156.17" fy="1306.07" r="8.99" gradientTransform="translate(3087.86 -1054.24) scale(2.65 .84)" gradientUnits="userSpaceOnUse">
      <stop offset="0" stop-color="#000"/>
      <stop offset="1" stop-color="#000" stop-opacity="0"/>
    </radialGradient>
    <linearGradient id="linear-gradient" x1="24" y1="1031.94" x2="24" y2="1076.72" gradientTransform="translate(0 -1030)" gradientUnits="userSpaceOnUse">
      <stop offset="0" stop-color="#f2f2f2"/>
      <stop offset="1" stop-color="#d8d8d8"/>
    </linearGradient>
    <linearGradient id="linear-gradient1" x1="24" y1="1040.05" x2="24" y2="1068.59" gradientTransform="translate(0 -1030)" gradientUnits="userSpaceOnUse">
      <stop offset="0" stop-color="#dadada"/>
      <stop offset="1" stop-color="#ccc"/>
    </linearGradient>
    <linearGradient id="linear-gradient2" x1="24.26" y1="1068.97" x2="23.75" y2="1039.94" gradientTransform="translate(0 -1030)" gradientUnits="userSpaceOnUse">
      <stop offset="0" stop-color="#fff"/>
      <stop offset="1" stop-color="#959595"/>
    </linearGradient>
    <linearGradient id="linear-gradient3" x1="24" y1="1037.39" x2="24" y2="1070.08" gradientTransform="translate(0 -1030)" gradientUnits="userSpaceOnUse">
      <stop offset="0" stop-color="#d9d9d9"/>
      <stop offset="1" stop-color="#ccc"/>
    </linearGradient>
    <linearGradient id="linear-gradient4" x1="23.98" y1="1037.83" x2="24.02" y2="1069.54" gradientTransform="translate(0 -1030)" gradientUnits="userSpaceOnUse">
      <stop offset="0" stop-color="#d9d9d9"/>
      <stop offset="1" stop-color="#ccc"/>
    </linearGradient>
  </defs>
  <path class="st0" d="M47.85,43.49c0,4.19-10.65,7.57-23.85,7.57S.15,47.67.15,43.49s10.64-7.57,23.85-7.57,23.85,3.39,23.85,7.57Z"/>
  <path class="st1" d="M45.66,18.77h-1.84c-.5,0-1.07-.41-1.23-.88,0-.02-1.14-2.76-1.14-2.76-.24-.46-.12-1.16.23-1.52l1.29-1.29c.3-.3.46-.7.46-1.12s-.16-.82-.46-1.12l-5.11-5.1c-.3-.3-.7-.46-1.12-.46s-.82.16-1.12.46l-1.29,1.29c-.36.34-1.04.46-1.49.24-.02-.01-2.76-1.14-2.76-1.14-.5-.16-.9-.73-.9-1.23v-1.82c0-.87-.71-1.57-1.59-1.57h-7.22c-.87,0-1.59.71-1.59,1.57v1.82c0,.5-.41,1.07-.88,1.23-.02,0-2.76,1.13-2.76,1.13-.46.24-1.16.12-1.52-.23l-1.29-1.29c-.3-.3-.7-.46-1.12-.46s-.82.16-1.12.46l-5.11,5.1c-.61.61-.61,1.62,0,2.24l1.29,1.29c.34.34.46,1.04.24,1.49-.01.02-1.14,2.76-1.14,2.76-.16.5-.74.9-1.23.9h-1.36c-.87,0-2.06.71-2.06,1.57v7.21c0,.87.71,1.57,1.59,1.57h1.84c.5,0,1.07.41,1.23.88,0,.02,1.14,2.76,1.14,2.76.24.46.12,1.16-.23,1.52l-1.29,1.29c-.61.61-.61,1.62,0,2.24l5.11,5.1c.3.3.7.46,1.12.46s.82-.16,1.12-.46l1.29-1.29c.36-.34,1.04-.46,1.49-.24.02.01,2.76,1.14,2.76,1.14.5.16.9.73.9,1.23v1.82c0,.87.71,1.57,1.59,1.57h7.22c.87,0,1.59-.71,1.59-1.57v-1.82c0-.5.41-1.07.88-1.23.02,0,2.76-1.13,2.76-1.13.46-.24,1.16-.12,1.52.23l1.29,1.29c.3.3.7.46,1.12.46s.82-.16,1.12-.46l5.11-5.1c.3-.3.46-.69.46-1.12s-.16-.82-.46-1.12l-1.29-1.29c-.36-.34-.46-1.04-.24-1.49.01-.02,1.14-2.76,1.14-2.76.16-.5.74-.9,1.23-.9h1.84c.87,0,1.59-.71,1.59-1.57v-7.21c0-.87-.71-1.57-1.57-1.57h-.04ZM24.05,30.7c-3.72,0-6.74-3.02-6.74-6.73s3.03-6.73,6.74-6.73,6.74,3.02,6.74,6.73-3.02,6.73-6.74,6.73Z"/>
  <path class="st5" d="M45.66,18.77h-1.84c-.5,0-1.07-.41-1.23-.88,0-.02-1.14-2.76-1.14-2.76-.24-.46-.12-1.16.23-1.52l1.29-1.29c.3-.3.46-.7.46-1.12s-.16-.82-.46-1.12l-5.11-5.11c-.3-.3-.7-.46-1.12-.46s-.82.16-1.12.46l-1.29,1.29c-.36.36-1.04.46-1.49.24-.02-.01-2.76-1.14-2.76-1.14-.5-.16-.9-.74-.9-1.23v-1.84c0-.87-.71-1.59-1.59-1.59h-7.22c-.87,0-1.59.71-1.59,1.59v1.84c0,.5-.41,1.07-.88,1.23-.02,0-2.76,1.14-2.76,1.14-.46.24-1.16.12-1.52-.23l-1.29-1.29c-.3-.3-.7-.46-1.12-.46s-.82.16-1.12.46l-5.11,5.11c-.61.61-.61,1.63,0,2.24l1.29,1.29c.34.36.46,1.04.24,1.49-.01.02-1.14,2.76-1.14,2.76-.16.5-.74.9-1.23.9h-1.36c-.87,0-2.06.71-2.06,1.59v7.22c0,.87.71,1.59,1.59,1.59h1.84c.5,0,1.07.41,1.23.88,0,.02,1.14,2.76,1.14,2.76.24.46.12,1.16-.23,1.52l-1.29,1.29c-.61.61-.61,1.63,0,2.24l5.11,5.11c.3.3.7.46,1.12.46s.82-.16,1.12-.46l1.29-1.29c.36-.36,1.04-.46,1.49-.24.02.01,2.76,1.14,2.76,1.14.5.16.9.74.9,1.23v1.84c0,.87.71,1.59,1.59,1.59h7.22c.87,0,1.59-.71,1.59-1.59v-1.84c0-.5.41-1.07.88-1.23.02,0,2.76-1.14,2.76-1.14.46-.24,1.16-.12,1.52.23l1.29,1.29c.3.3.7.46,1.12.46s.82-.16,1.12-.46l5.11-5.11c.3-.3.46-.7.46-1.12s-.16-.82-.46-1.12l-1.29-1.29c-.36-.36-.46-1.04-.24-1.49.01-.02,1.14-2.76,1.14-2.76.16-.5.74-.9,1.23-.9h1.84c.87,0,1.59-.71,1.59-1.59v-7.22c0-.87-.71-1.59-1.57-1.59h-.04ZM24.05,31.19c-4.04,0-7.31-3.27-7.31-7.3s3.27-7.3,7.31-7.3,7.31,3.27,7.31,7.3-3.27,7.3-7.31,7.3Z"/>
  <path class="st2" d="M24,9.88c-7.98,0-14.53,6.48-14.53,14.4s6.5,14.4,14.53,14.4,14.53-6.48,14.53-14.4-6.5-14.4-14.53-14.4ZM24,34.96c-5.87,0-10.64-4.76-10.64-10.63s4.77-10.63,10.64-10.63,10.64,4.76,10.64,10.63-4.77,10.63-10.64,10.63Z"/>
  <path class="st3" d="M24,11.58c-6.88,0-12.42,5.57-12.42,12.42s5.58,12.42,12.42,12.42,12.42-5.57,12.42-12.42-5.58-12.42-12.42-12.42ZM24,32.2c-4.55,0-8.23-3.67-8.23-8.22s3.68-8.22,8.23-8.22,8.23,3.67,8.23,8.22-3.68,8.22-8.23,8.22Z"/>
  <g>
    <path class="st4" d="M37.57,24.22c.6,7.68-4.98,14.41-12.47,15.04s-14.07-5.11-14.67-12.79c-.05-.74-.05-1.5,0-2.25-.6-7.68,4.98-14.41,12.47-15.04,7.5-.62,14.07,5.11,14.67,12.79.05.74.05,1.5,0,2.25Z"/>
    <path class="st6" d="M29.96,24.27l-9.48,5.26v-10.52s9.48,5.27,9.48,5.27Z"/>
  </g>
</svg>